<?xml version="1.0" encoding="UTF-8"?>
<svg id="Capa_2" data-name="Capa 2" xmlns="http://www.w3.org/2000/svg" viewBox="0 0 128.67 152.07">
  <defs>
    <style>
      .cls-1 {
        fill: #fff;
      }

      .cls-2 {
        fill: #199afc;
      }
    </style>
  </defs>
  <g id="Capa_1-2" data-name="Capa 1">
    <g>
      <path class="cls-2" d="M18.53,84.87c.3,20.42,29.08,20.44,29.76,0h16.23c-.26,42.26-62.18,42.35-62.23,0h16.23Z"/>
      <g>
        <path class="cls-2" d="M33.39,22.11c-17.33,0-31.38,14.05-31.38,31.38s14.05,31.38,31.38,31.38,31.38-14.05,31.38-31.38-14.05-31.38-31.38-31.38ZM33.42,68.35c-8.19,0-14.83-6.64-14.83-14.83s6.64-14.83,14.83-14.83,14.83,6.64,14.83,14.83-6.64,14.83-14.83,14.83Z"/>
        <path class="cls-2" d="M55.73,27.85c2.12,1.61,6.64,3.97,8.81,2.01V1.12c-14.54-.2-20.45,17.87-8.81,26.74Z"/>
      </g>
      <path class="cls-2" d="M81.06,83.76c.3,20.42,29.08,20.44,29.76,0h16.23c-.26,42.26-62.18,42.35-62.23,0h16.23Z"/>
      <g>
        <path class="cls-2" d="M95.91,20.99c-17.33,0-31.38,14.05-31.38,31.38s14.05,31.38,31.38,31.38,31.38-14.05,31.38-31.38-14.05-31.38-31.38-31.38ZM95.94,67.23c-8.19,0-14.83-6.64-14.83-14.83s6.64-14.83,14.83-14.83,14.83,6.64,14.83,14.83-6.64,14.83-14.83,14.83Z"/>
        <path class="cls-2" d="M118.26,26.74c2.12,1.61,6.64,3.97,8.81,2.01V0c-14.54-.2-20.45,17.87-8.81,26.74Z"/>
      </g>
      <g>
        <path class="cls-1" d="M0,143.88l5.42-1.82c.33,1.54,1.06,2.83,2.2,3.87,1.14,1.04,2.64,1.55,4.51,1.55,1.72,0,3.01-.3,3.89-.91.87-.61,1.31-1.44,1.31-2.5,0-1.74-1.44-2.83-4.32-3.26l-3.3-.46c-5.59-.78-8.38-3.44-8.38-7.96,0-2.3.94-4.22,2.82-5.76,1.88-1.54,4.44-2.31,7.68-2.31s5.56.65,7.43,1.95c1.87,1.3,3.13,3.01,3.79,5.14l-5.31,1.86c-.94-2.91-2.91-4.36-5.91-4.36-1.49,0-2.62.3-3.37.91-.76.61-1.14,1.39-1.14,2.35,0,1.57,1.14,2.51,3.41,2.84l3.3.46c2.96.4,5.24,1.3,6.86,2.69,1.62,1.39,2.43,3.24,2.43,5.54,0,2.45-.96,4.46-2.88,6.03-1.92,1.57-4.69,2.35-8.3,2.35-3.39,0-6.12-.76-8.19-2.27-2.07-1.52-3.39-3.49-3.94-5.91Z"/>
        <path class="cls-1" d="M33.06,151.47v-21.76h-9.1v-4.78h23.96v4.78h-9.1v21.76h-5.76Z"/>
        <path class="cls-1" d="M47.96,138.27c0-4.04,1.29-7.38,3.89-10.01,2.59-2.63,6.02-3.94,10.29-3.94s7.7,1.31,10.29,3.94c2.59,2.63,3.89,5.96,3.89,10.01.05,4.02-1.23,7.33-3.83,9.93-2.6,2.6-6.05,3.89-10.35,3.87-4.3.03-7.75-1.26-10.35-3.87-2.6-2.6-3.88-5.91-3.83-9.93ZM70.29,138.23c0-2.7-.73-4.9-2.2-6.6-1.47-1.69-3.44-2.54-5.91-2.54s-4.52.85-5.99,2.54c-1.47,1.69-2.2,3.89-2.2,6.6s.73,4.86,2.2,6.54c1.47,1.68,3.46,2.52,5.99,2.52s4.45-.84,5.91-2.52c1.47-1.68,2.2-3.86,2.2-6.54Z"/>
        <path class="cls-1" d="M81.09,151.47v-26.54h13.12c2.81,0,5.02.64,6.63,1.91,1.62,1.28,2.43,2.98,2.43,5.1s-.64,3.77-1.93,5.02-2.89,2.04-4.81,2.37c1.77.18,3.15.72,4.15,1.63,1,.91,1.65,2.29,1.95,4.13l1.1,6.37h-6.14l-.8-5.88c-.23-1.54-.72-2.63-1.48-3.26-.76-.63-1.97-.95-3.64-.95h-4.81v10.08h-5.76ZM86.86,136.72h6.26c1.29,0,2.31-.3,3.05-.91.75-.61,1.12-1.48,1.12-2.62s-.37-1.97-1.12-2.58-1.76-.91-3.05-.91h-6.26v7.01Z"/>
        <path class="cls-1" d="M108.62,151.47v-26.54h20.06v4.78h-14.29v5.76h10.8v4.7h-10.8v6.52h14.29v4.78h-20.06Z"/>
      </g>
    </g>
  </g>
</svg>